<mxfile host="Electron" agent="Mozilla/5.0 (X11; Linux x86_64) AppleWebKit/537.36 (KHTML, like Gecko) draw.io/26.2.2 Chrome/134.0.6998.178 Electron/35.1.2 Safari/537.36" version="26.2.2" pages="2">
  <diagram name="Page-1" id="c0KuSvCBTgdYg2i_AYo8">
    <mxGraphModel dx="2241" dy="813" grid="1" gridSize="10" guides="1" tooltips="1" connect="1" arrows="1" fold="1" page="1" pageScale="1" pageWidth="827" pageHeight="1169" math="0" shadow="0">
      <root>
        <mxCell id="0" />
        <mxCell id="1" parent="0" />
        <mxCell id="IvZlDAcGP4e5yj_wRt1W-22" style="edgeStyle=orthogonalEdgeStyle;rounded=0;orthogonalLoop=1;jettySize=auto;html=1;" edge="1" parent="1" source="IvZlDAcGP4e5yj_wRt1W-9" target="IvZlDAcGP4e5yj_wRt1W-21">
          <mxGeometry relative="1" as="geometry" />
        </mxCell>
        <mxCell id="IvZlDAcGP4e5yj_wRt1W-23" style="edgeStyle=orthogonalEdgeStyle;rounded=0;orthogonalLoop=1;jettySize=auto;html=1;" edge="1" parent="1" source="IvZlDAcGP4e5yj_wRt1W-9" target="IvZlDAcGP4e5yj_wRt1W-19">
          <mxGeometry relative="1" as="geometry" />
        </mxCell>
        <mxCell id="IvZlDAcGP4e5yj_wRt1W-24" style="edgeStyle=orthogonalEdgeStyle;rounded=0;orthogonalLoop=1;jettySize=auto;html=1;" edge="1" parent="1" source="IvZlDAcGP4e5yj_wRt1W-9" target="IvZlDAcGP4e5yj_wRt1W-20">
          <mxGeometry relative="1" as="geometry" />
        </mxCell>
        <mxCell id="IvZlDAcGP4e5yj_wRt1W-9" value="pyCFS Project" style="rounded=1;whiteSpace=wrap;html=1;fillColor=#e1d5e7;strokeColor=#9673a6;fontStyle=1;fontSize=20;" vertex="1" parent="1">
          <mxGeometry x="-120" y="240" width="440" height="80" as="geometry" />
        </mxCell>
        <mxCell id="IvZlDAcGP4e5yj_wRt1W-19" value="pyCFS" style="shape=process;whiteSpace=wrap;html=1;backgroundOutline=1;fillColor=#dae8fc;strokeColor=#6c8ebf;fontStyle=1;fontSize=14;" vertex="1" parent="1">
          <mxGeometry x="-120" y="360" width="120" height="60" as="geometry" />
        </mxCell>
        <mxCell id="IvZlDAcGP4e5yj_wRt1W-20" value="pyCFS.topt" style="shape=process;whiteSpace=wrap;html=1;backgroundOutline=1;fillColor=#dae8fc;strokeColor=#6c8ebf;fontStyle=1;fontSize=14;" vertex="1" parent="1">
          <mxGeometry x="40" y="360" width="120" height="60" as="geometry" />
        </mxCell>
        <mxCell id="IvZlDAcGP4e5yj_wRt1W-33" style="edgeStyle=orthogonalEdgeStyle;rounded=0;orthogonalLoop=1;jettySize=auto;html=1;" edge="1" parent="1" source="IvZlDAcGP4e5yj_wRt1W-21" target="IvZlDAcGP4e5yj_wRt1W-31">
          <mxGeometry relative="1" as="geometry" />
        </mxCell>
        <mxCell id="IvZlDAcGP4e5yj_wRt1W-34" style="edgeStyle=orthogonalEdgeStyle;rounded=0;orthogonalLoop=1;jettySize=auto;html=1;" edge="1" parent="1" source="IvZlDAcGP4e5yj_wRt1W-21" target="IvZlDAcGP4e5yj_wRt1W-30">
          <mxGeometry relative="1" as="geometry" />
        </mxCell>
        <mxCell id="IvZlDAcGP4e5yj_wRt1W-35" style="edgeStyle=orthogonalEdgeStyle;rounded=0;orthogonalLoop=1;jettySize=auto;html=1;" edge="1" parent="1" source="IvZlDAcGP4e5yj_wRt1W-21" target="IvZlDAcGP4e5yj_wRt1W-32">
          <mxGeometry relative="1" as="geometry" />
        </mxCell>
        <mxCell id="IvZlDAcGP4e5yj_wRt1W-21" value="pyCFS.data" style="shape=process;whiteSpace=wrap;html=1;backgroundOutline=1;fillColor=#dae8fc;strokeColor=#6c8ebf;fontStyle=1;fontSize=14;" vertex="1" parent="1">
          <mxGeometry x="180" y="360" width="140" height="60" as="geometry" />
        </mxCell>
        <mxCell id="IvZlDAcGP4e5yj_wRt1W-30" value="I/O" style="rounded=1;whiteSpace=wrap;html=1;fillColor=#fff2cc;strokeColor=#d6b656;" vertex="1" parent="1">
          <mxGeometry x="180" y="440" width="140" height="40" as="geometry" />
        </mxCell>
        <mxCell id="IvZlDAcGP4e5yj_wRt1W-31" value="Operators" style="rounded=1;whiteSpace=wrap;html=1;fillColor=#fff2cc;strokeColor=#d6b656;" vertex="1" parent="1">
          <mxGeometry x="340" y="440" width="200" height="40" as="geometry" />
        </mxCell>
        <mxCell id="IvZlDAcGP4e5yj_wRt1W-32" value="Extras" style="rounded=1;whiteSpace=wrap;html=1;fillColor=#fff2cc;strokeColor=#d6b656;" vertex="1" parent="1">
          <mxGeometry x="560" y="440" width="120" height="40" as="geometry" />
        </mxCell>
        <mxCell id="IvZlDAcGP4e5yj_wRt1W-49" value="&lt;div&gt;Topology optimization&lt;/div&gt;&lt;i&gt;&lt;div&gt;&lt;i&gt;&lt;br&gt;&lt;/i&gt;&lt;/div&gt;under development&lt;/i&gt;" style="text;html=1;align=left;verticalAlign=top;whiteSpace=wrap;rounded=0;fillColor=#d5e8d4;strokeColor=#82b366;" vertex="1" parent="1">
          <mxGeometry x="40" y="440" width="120" height="160" as="geometry" />
        </mxCell>
        <mxCell id="IvZlDAcGP4e5yj_wRt1W-50" value="&lt;div&gt;- Create structured simulation setup&lt;/div&gt;&lt;div&gt;- Run simulations in parallel&lt;/div&gt;&lt;div&gt;- Tune simulation parameters&lt;/div&gt;&lt;div&gt;- Integrate simulation runs in your workflow&lt;/div&gt;" style="text;html=1;align=left;verticalAlign=top;whiteSpace=wrap;rounded=0;fillColor=#d5e8d4;strokeColor=#82b366;" vertex="1" parent="1">
          <mxGeometry x="-120" y="440" width="140" height="160" as="geometry" />
        </mxCell>
        <mxCell id="IvZlDAcGP4e5yj_wRt1W-51" value="Operators for pre- &amp;amp; postprocessing:&lt;div&gt;- Mesh manipulation&lt;/div&gt;&lt;div&gt;- Data interpolation&lt;/div&gt;&lt;div&gt;- Source term computation&lt;/div&gt;&lt;div&gt;- Data evaluation for validation/visualization&lt;/div&gt;" style="text;html=1;align=left;verticalAlign=top;whiteSpace=wrap;rounded=0;fillColor=#d5e8d4;strokeColor=#82b366;" vertex="1" parent="1">
          <mxGeometry x="340" y="500" width="200" height="100" as="geometry" />
        </mxCell>
        <mxCell id="IvZlDAcGP4e5yj_wRt1W-54" value="Interface to&amp;nbsp;&lt;div&gt;- mesh file formats&lt;/div&gt;&lt;div&gt;- result file formats&lt;/div&gt;" style="text;html=1;align=left;verticalAlign=top;whiteSpace=wrap;rounded=0;fillColor=#d5e8d4;strokeColor=#82b366;" vertex="1" parent="1">
          <mxGeometry x="560" y="500" width="120" height="100" as="geometry" />
        </mxCell>
        <mxCell id="IvZlDAcGP4e5yj_wRt1W-55" value="Reading &amp;amp; writing of CFS-type HDF5 file format&lt;div&gt;&lt;span style=&quot;background-color: transparent; color: light-dark(rgb(0, 0, 0), rgb(255, 255, 255));&quot;&gt;- Mesh assessment&lt;/span&gt;&lt;/div&gt;&lt;div&gt;- Data access in numpy array format&lt;/div&gt;" style="text;html=1;align=left;verticalAlign=top;whiteSpace=wrap;rounded=0;fillColor=#d5e8d4;strokeColor=#82b366;" vertex="1" parent="1">
          <mxGeometry x="180" y="500" width="140" height="100" as="geometry" />
        </mxCell>
      </root>
    </mxGraphModel>
  </diagram>
  <diagram id="g5BtnlxS3S-XRJwnQjy1" name="Page-2">
    <mxGraphModel dx="1414" dy="813" grid="1" gridSize="10" guides="1" tooltips="1" connect="1" arrows="1" fold="1" page="1" pageScale="1" pageWidth="827" pageHeight="1169" math="0" shadow="0">
      <root>
        <mxCell id="0" />
        <mxCell id="1" parent="0" />
        <mxCell id="Y0nISsGO1w79w4lQLtRj-10" style="edgeStyle=orthogonalEdgeStyle;rounded=0;orthogonalLoop=1;jettySize=auto;html=1;entryX=0.5;entryY=0;entryDx=0;entryDy=0;" edge="1" parent="1" source="ypweCXgVusWotNEsRDGq-1" target="ypweCXgVusWotNEsRDGq-4">
          <mxGeometry relative="1" as="geometry" />
        </mxCell>
        <mxCell id="Y0nISsGO1w79w4lQLtRj-11" style="edgeStyle=orthogonalEdgeStyle;rounded=0;orthogonalLoop=1;jettySize=auto;html=1;exitX=0;exitY=0.5;exitDx=0;exitDy=0;" edge="1" parent="1" source="ypweCXgVusWotNEsRDGq-5" target="ypweCXgVusWotNEsRDGq-1">
          <mxGeometry relative="1" as="geometry">
            <Array as="points">
              <mxPoint x="420" y="420" />
            </Array>
          </mxGeometry>
        </mxCell>
        <mxCell id="ypweCXgVusWotNEsRDGq-1" value="pyCFS" style="rounded=1;whiteSpace=wrap;html=1;fillColor=#f8cecc;strokeColor=#b85450;" vertex="1" parent="1">
          <mxGeometry x="360" y="320" width="120" height="80" as="geometry" />
        </mxCell>
        <mxCell id="Y0nISsGO1w79w4lQLtRj-9" style="edgeStyle=orthogonalEdgeStyle;rounded=0;orthogonalLoop=1;jettySize=auto;html=1;entryX=0.5;entryY=1;entryDx=0;entryDy=0;" edge="1" parent="1" source="ypweCXgVusWotNEsRDGq-1" target="ypweCXgVusWotNEsRDGq-2">
          <mxGeometry relative="1" as="geometry" />
        </mxCell>
        <mxCell id="ypweCXgVusWotNEsRDGq-2" value="Parameters" style="rounded=1;whiteSpace=wrap;html=1;fillColor=#fff2cc;strokeColor=#d6b656;" vertex="1" parent="1">
          <mxGeometry x="220" y="280" width="120" height="40" as="geometry" />
        </mxCell>
        <mxCell id="Y0nISsGO1w79w4lQLtRj-8" style="edgeStyle=orthogonalEdgeStyle;rounded=0;orthogonalLoop=1;jettySize=auto;html=1;entryX=0.5;entryY=1;entryDx=0;entryDy=0;" edge="1" parent="1" source="ypweCXgVusWotNEsRDGq-1" target="ypweCXgVusWotNEsRDGq-3">
          <mxGeometry relative="1" as="geometry">
            <mxPoint x="560" y="370" as="sourcePoint" />
          </mxGeometry>
        </mxCell>
        <mxCell id="ypweCXgVusWotNEsRDGq-3" value="Templates" style="rounded=1;whiteSpace=wrap;html=1;fillColor=#fff2cc;strokeColor=#d6b656;" vertex="1" parent="1">
          <mxGeometry x="500" y="280" width="120" height="40" as="geometry" />
        </mxCell>
        <mxCell id="ypweCXgVusWotNEsRDGq-4" value="CFS Simulation Files" style="rounded=1;whiteSpace=wrap;html=1;fillColor=#fff2cc;strokeColor=#d6b656;" vertex="1" parent="1">
          <mxGeometry x="220" y="400" width="120" height="40" as="geometry" />
        </mxCell>
        <mxCell id="ypweCXgVusWotNEsRDGq-5" value="CFS Result Files" style="rounded=1;whiteSpace=wrap;html=1;fillColor=#fff2cc;strokeColor=#d6b656;" vertex="1" parent="1">
          <mxGeometry x="500" y="400" width="120" height="40" as="geometry" />
        </mxCell>
      </root>
    </mxGraphModel>
  </diagram>
</mxfile>
